<?xml version="1.0" encoding="UTF-8"?>
<svg version="1.1" xmlns="http://www.w3.org/2000/svg" width="2057" height="2112">
<path d="M0 0 C4.64156188 0.00776648 9.28309649 -0.00222997 13.92465422 -0.00973 C22.02091999 -0.02045771 30.11712553 -0.02030351 38.2133939 -0.01258852 C50.25370092 -0.00114693 62.29395799 -0.00709062 74.33426478 -0.01621344 C95.84980629 -0.03194107 117.36532093 -0.03066939 138.88086494 -0.0219767 C157.71034317 -0.01440729 176.5398116 -0.01247049 195.36929104 -0.01604463 C196.62199501 -0.01627379 197.87469898 -0.01650294 199.16536368 -0.01673904 C204.25146935 -0.01767317 209.33757502 -0.01862839 214.42368069 -0.01961833 C249.88105913 -0.02643726 285.33843493 -0.02767072 320.79581235 -0.01642801 C321.46272972 -0.01621726 322.12964709 -0.01600652 322.81677409 -0.01578938 C333.64419489 -0.01235534 344.47161562 -0.00869658 355.29903634 -0.00501886 C398.23053994 0.00954795 441.16201547 0.0088718 484.09351895 -0.00571062 C494.91573623 -0.00937477 505.73795351 -0.01300817 516.56017087 -0.01642801 C517.22671142 -0.01663936 517.89325198 -0.0168507 518.57999073 -0.01706845 C554.63912719 -0.0284232 590.69826251 -0.02589229 626.75739978 -0.01887383 C631.83383057 -0.01791179 636.91026137 -0.01697326 641.98669217 -0.01604463 C643.23648864 -0.0158074 644.48628511 -0.01557017 645.77395419 -0.01532575 C664.58401691 -0.01192427 683.39406871 -0.01588367 702.20412991 -0.02348329 C723.60834668 -0.03208829 745.01253257 -0.02985882 766.41674552 -0.01364106 C778.37167852 -0.00487985 790.32654452 -0.00418765 802.28147568 -0.01557958 C810.29373583 -0.02236758 818.30594292 -0.01801181 826.31819528 -0.00506528 C830.86514293 0.00198627 835.41195876 0.00469271 839.95890168 -0.00628323 C869.51601374 -0.07238673 898.81501448 1.46739414 928.05299161 6.07290266 C928.86265378 6.19723677 929.67231595 6.32157088 930.50651333 6.44967268 C1010.48258952 18.78981214 1088.24822884 46.89771316 1157.17799161 89.38540266 C1158.09951016 89.95259016 1159.02102872 90.51977766 1159.97047208 91.10415266 C1172.76639685 99.02070616 1185.10647543 107.40756342 1197.17799161 116.38540266 C1198.54756729 117.39350865 1199.91735606 118.40132523 1201.28736661 119.40884016 C1219.52102351 132.88339793 1236.95324877 147.42779274 1253.5505502 162.87124251 C1255.35719622 164.55213339 1257.16808178 166.22840168 1258.97877286 167.90493391 C1275.71775763 183.43214959 1275.71775763 183.43214959 1283.07252286 191.99868391 C1285.28361756 194.5051382 1287.55704899 196.94224569 1289.84498379 199.37832258 C1295.02012327 204.89151791 1300.02668653 210.46071314 1304.75221036 216.36977766 C1306.6062574 218.67464773 1308.48177472 220.94984532 1310.38502286 223.21352766 C1318.24082148 232.5817901 1325.58248538 242.20060001 1332.62525723 252.19301985 C1334.11192954 254.29212635 1335.617849 256.37572984 1337.13111661 258.45571516 C1390.11844132 331.68648361 1424.19673941 418.73068602 1447.56339427 612.12906745 C1447.55564024 617.05294495 1447.56561956 621.97679646 1447.57312427 626.90067003 C1447.58386063 635.49261566 1447.58369227 644.08450453 1447.57598279 652.67645262 C1447.56454939 665.45382772 1447.57048074 678.2311557 1447.57960771 691.00853057 C1447.59534155 713.84012398 1447.59406115 736.67169209 1447.58537097 759.50328786 C1447.57780371 779.48443206 1447.5758589 799.46556694 1447.5794389 819.44671248 C1447.57967134 820.78908929 1447.57990281 822.1314661 1447.58013331 823.47384291 C1447.58106486 828.86943069 1447.58202087 834.26501846 1447.5830126 839.66060622 C1447.5857625 854.73987687 1447.58747513 869.81914754 1447.58837102 884.89841841 C1447.58841195 885.5848711 1447.58845289 886.27132379 1447.58849507 886.97857808 C1447.58972138 908.82457077 1447.58635013 930.67056027 1447.57982228 952.51655195 C1447.57961153 953.2242351 1447.57940079 953.93191824 1447.57918365 954.66104633 C1447.57574955 966.15054257 1447.57209081 977.64003874 1447.56841313 989.1295349 C1447.55384615 1034.68716374 1447.5545223 1080.24476612 1447.56910489 1125.80239485 C1447.572769 1137.28634766 1447.57640237 1148.77030048 1447.57982228 1160.25425337 C1447.5801393 1161.31517634 1447.5801393 1161.31517634 1447.58046272 1162.3975321 C1447.58693937 1184.22248413 1447.58967257 1206.04743396 1447.58837102 1227.87238692 C1447.58833026 1228.55832405 1447.58828951 1229.24426118 1447.58824752 1229.95098429 C1447.58730974 1245.01400812 1447.58540815 1260.07703172 1447.58263951 1275.14005532 C1447.58165225 1280.53057752 1447.58071298 1285.92109974 1447.57978737 1291.31162195 C1447.57955521 1292.6524221 1447.57931902 1293.99322224 1447.57907879 1295.33402238 C1447.57539247 1315.96460818 1447.57902513 1336.595181 1447.58687756 1357.22576521 C1447.59547971 1379.93835274 1447.5932591 1402.65091116 1447.57703533 1425.36349509 C1447.56826938 1438.05161581 1447.56758891 1450.73967339 1447.57897385 1463.42779237 C1447.58575602 1471.92877459 1447.58141628 1480.42970675 1447.56845955 1488.93068161 C1447.56140016 1493.75676311 1447.55871881 1498.58272027 1447.56967749 1503.40879737 C1447.63313476 1533.56846969 1446.19044393 1563.42285098 1441.49049161 1593.26040266 C1441.3661575 1594.07006483 1441.24182339 1594.879727 1441.11372159 1595.71392439 C1428.77358213 1675.69000058 1400.66568111 1753.45563989 1358.17799161 1822.38540266 C1357.32721036 1823.76768049 1357.32721036 1823.76768049 1356.45924161 1825.17788313 C1348.54268811 1837.97380791 1340.15583084 1850.31388649 1331.17799161 1862.38540266 C1330.16988561 1863.75497835 1329.16206904 1865.12476711 1328.15455411 1866.49477766 C1314.67999633 1884.72843456 1300.13560153 1902.16065983 1284.69215176 1918.75796126 C1283.01126088 1920.56460728 1281.33499259 1922.37549284 1279.65846036 1924.18618391 C1264.13124468 1940.92516868 1264.13124468 1940.92516868 1255.56471036 1948.27993391 C1253.05825607 1950.49102861 1250.62114858 1952.76446005 1248.18507168 1955.05239485 C1242.67187636 1960.22753432 1237.10268113 1965.23409759 1231.19361661 1969.95962141 C1228.88874654 1971.81366845 1226.61354895 1973.68918578 1224.34986661 1975.59243391 C1214.98160417 1983.44823253 1205.36279426 1990.78989644 1195.37037442 1997.83266829 C1193.27126792 1999.3193406 1191.18766442 2000.82526005 1189.10767911 2002.33852766 C1115.87691066 2055.32585237 1028.83270825 2089.40415047 837.35598321 2112.77080533 C832.71442134 2112.76303884 828.07288673 2112.7730353 823.43132899 2112.78053532 C815.33506322 2112.79126303 807.23885769 2112.79110883 799.14258931 2112.78339384 C787.10228229 2112.77195225 775.06202522 2112.77789594 763.02171843 2112.78701876 C741.50617693 2112.8027464 719.99066228 2112.80147471 698.47511827 2112.79278203 C679.64564004 2112.78521262 660.81617161 2112.78327581 641.98669217 2112.78684996 C640.7339882 2112.78707911 639.48128423 2112.78730827 638.19061953 2112.78754437 C633.10451386 2112.7884785 628.01840819 2112.78943371 622.93230253 2112.79042366 C587.47492409 2112.79724258 552.01754829 2112.79847604 516.56017087 2112.78723334 C515.89325349 2112.78702259 515.22633612 2112.78681184 514.53920913 2112.78659471 C503.71178832 2112.78316067 492.8843676 2112.77950191 482.05694687 2112.77582419 C439.12544327 2112.76125738 396.19396774 2112.76193353 353.26246426 2112.77651594 C342.44024699 2112.7801801 331.6180297 2112.7838135 320.79581235 2112.78723334 C320.12927179 2112.78744468 319.46273124 2112.78765602 318.77599248 2112.78787377 C282.71685602 2112.79922852 246.65772071 2112.79669761 210.59858344 2112.78967915 C205.52215264 2112.78871711 200.44572185 2112.78777858 195.36929104 2112.78684996 C194.11949458 2112.78661273 192.86969811 2112.78637549 191.58202902 2112.78613107 C172.7719663 2112.7827296 153.9619145 2112.786689 135.1518533 2112.79428862 C113.74763653 2112.80289361 92.34345065 2112.80066415 70.93923769 2112.78444639 C58.98430469 2112.77568518 47.02943869 2112.77499297 35.07450753 2112.78638491 C27.06224738 2112.7931729 19.0500403 2112.78881714 11.03778793 2112.7758706 C6.49084028 2112.76881905 1.94402446 2112.76611261 -2.60291847 2112.77708855 C-32.16003053 2112.84319205 -61.45903127 2111.30341119 -90.69700839 2106.69790266 C-91.50667056 2106.57356856 -92.31633273 2106.44923445 -93.15053012 2106.32113264 C-173.12660631 2093.98099318 -250.89224562 2065.87309216 -319.82200839 2023.38540266 C-321.20428623 2022.53462141 -321.20428623 2022.53462141 -322.61448886 2021.66665266 C-335.41041364 2013.75009917 -347.75049222 2005.3632419 -359.82200839 1996.38540266 C-361.19158408 1995.37729667 -362.56137285 1994.3694801 -363.93138339 1993.36196516 C-382.16504029 1979.88740739 -399.59726556 1965.34301259 -416.19456699 1949.89956282 C-418.00121301 1948.21867194 -419.81209857 1946.54240365 -421.62278964 1944.86587141 C-438.36177442 1929.33865574 -438.36177442 1929.33865574 -445.71653964 1920.77212141 C-447.92763434 1918.26566712 -450.20106578 1915.82855963 -452.48900058 1913.39248274 C-457.66414005 1907.87928742 -462.67070332 1902.31009219 -467.39622714 1896.40102766 C-469.25027418 1894.09615759 -471.12579151 1891.82096001 -473.02903964 1889.55727766 C-480.88483826 1880.18901522 -488.22650217 1870.57020531 -495.26927402 1860.57778548 C-496.75594633 1858.47867898 -498.26186579 1856.39507548 -499.77513339 1854.31509016 C-552.7624581 1781.08432172 -586.8407562 1694.04011931 -610.20741106 1500.64173788 C-610.19965703 1495.71786037 -610.20963635 1490.79400887 -610.21714105 1485.87013529 C-610.22787742 1477.27818967 -610.22770906 1468.6863008 -610.21999957 1460.09435271 C-610.20856618 1447.3169776 -610.21449752 1434.53964963 -610.2236245 1421.76227476 C-610.23935833 1398.93068134 -610.23807794 1376.09911324 -610.22938776 1353.26751746 C-610.2218205 1333.28637326 -610.21987569 1313.30523839 -610.22345569 1293.32409285 C-610.22368813 1291.98171604 -610.2239196 1290.63933923 -610.2241501 1289.29696242 C-610.22508165 1283.90137464 -610.22603766 1278.50578687 -610.22702939 1273.1101991 C-610.22977928 1258.03092846 -610.23149191 1242.95165778 -610.2323878 1227.87238692 C-610.23242874 1227.18593422 -610.23246968 1226.49948153 -610.23251186 1225.79222724 C-610.23373817 1203.94623455 -610.23036692 1182.10024506 -610.22383907 1160.25425337 C-610.22352295 1159.19272866 -610.22352295 1159.19272866 -610.22320044 1158.109759 C-610.21976634 1146.62026276 -610.2161076 1135.13076659 -610.21242992 1123.64127043 C-610.19786293 1078.08364159 -610.19853909 1032.5260392 -610.21312167 986.96841048 C-610.21678578 975.48445766 -610.22041916 964.00050484 -610.22383907 952.51655195 C-610.22405041 951.80926997 -610.22426176 951.10198799 -610.2244795 950.37327322 C-610.23095616 928.5483212 -610.23368936 906.72337137 -610.2323878 884.89841841 C-610.23234705 884.21248128 -610.2323063 883.52654414 -610.23226431 882.81982103 C-610.23132653 867.7567972 -610.22942494 852.69377361 -610.22665629 837.63075001 C-610.22566904 832.2402278 -610.22472977 826.84970559 -610.22380416 821.45918338 C-610.22357199 820.11838323 -610.2233358 818.77758309 -610.22309557 817.43678294 C-610.21940926 796.80619714 -610.22304192 776.17562433 -610.23089435 755.54504011 C-610.23949649 732.83245259 -610.23727588 710.11989416 -610.22105212 687.40731023 C-610.21228617 674.71918952 -610.2116057 662.03113194 -610.22299064 649.34301295 C-610.22977281 640.84203073 -610.22543306 632.34109858 -610.21247633 623.84012371 C-610.20541695 619.01404221 -610.2027356 614.18808505 -610.21369428 609.36200796 C-610.27715154 579.20233564 -608.83446072 549.34795434 -604.13450839 519.51040266 C-604.01017429 518.70074049 -603.88584018 517.89107832 -603.75773837 517.05688093 C-591.41759892 437.08080475 -563.30969789 359.31516543 -520.82200839 290.38540266 C-520.25482089 289.46388411 -519.68763339 288.54236555 -519.10325839 287.59292219 C-511.1867049 274.79699742 -502.79984763 262.45691884 -493.82200839 250.38540266 C-492.8139024 249.01582698 -491.80608583 247.64603821 -490.79857089 246.27602766 C-477.32401312 228.04237076 -462.77961832 210.6101455 -447.33616855 194.01284407 C-445.65527767 192.20619805 -443.97900938 190.39531248 -442.30247714 188.58462141 C-426.77526147 171.84563664 -426.77526147 171.84563664 -418.20872714 164.49087141 C-415.70227285 162.27977671 -413.26516537 160.00634528 -410.82908847 157.71841048 C-405.31589315 152.543271 -399.74669792 147.53670774 -393.83763339 142.81118391 C-391.53276332 140.95713687 -389.25756574 139.08161955 -386.99388339 137.17837141 C-377.62562096 129.32257279 -368.00681104 121.98090889 -358.01439121 114.93813704 C-355.91528471 113.45146473 -353.83168121 111.94554527 -351.75169589 110.43227766 C-278.52092745 57.44495295 -191.47672504 23.36665486 0 0 Z " fill="#39372C" transform="translate(609.8220083937049,-0.38540266267955303)"/>
<path d="M0 0 C1.54155782 1.33052654 3.06326047 2.68446437 4.5625 4.0625 C5.30628906 4.72636719 6.05007813 5.39023438 6.81640625 6.07421875 C50.56237567 47.23346998 57.51400725 121.43533052 64.66796875 177.73828125 C64.76493042 178.50123505 64.86189209 179.26418884 64.96179199 180.05026245 C65.37055494 183.26908319 65.77927382 186.48790072 66.18365479 189.70727539 C67.44333057 199.73062887 68.78336187 209.73685604 70.26171875 219.73046875 C75.91497441 257.9913729 80.60709622 296.41288041 82.5625 335.0625 C82.60346802 335.84668304 82.64443604 336.63086609 82.68664551 337.43881226 C83.48627159 353.00161637 83.80312751 368.54240838 83.8125 384.125 C83.81350708 385.30594238 83.81451416 386.48688477 83.81555176 387.70361328 C83.79601377 422.01231959 81.7624733 456.13578866 76.5625 490.0625 C76.28817139 491.90739014 76.28817139 491.90739014 76.00830078 493.78955078 C71.63364569 522.93507802 64.78872704 551.08026832 55.5625 579.0625 C55.26375977 579.9817627 54.96501953 580.90102539 54.65722656 581.84814453 C48.12826353 601.83499929 39.37457014 620.95379978 30.9375 640.1875 C2.87393197 703.8140369 2.87393197 703.8140369 -16.828125 770.37939453 C-17.33940433 772.63058035 -17.86729843 774.87643017 -18.40625 777.12109375 C-20.09964782 784.44503933 -21.06477929 791.71948066 -21.70410156 799.20092773 C-22.22853858 804.85353858 -22.22853858 804.85353858 -24.4375 807.0625 C-25.27410156 806.37285156 -26.11070312 805.68320312 -26.97265625 804.97265625 C-42.98337683 791.96525536 -60.56350506 782.01136307 -80.25 775.6875 C-81.35939941 775.32942261 -81.35939941 775.32942261 -82.49121094 774.96411133 C-92.95744378 771.77557741 -103.3384513 770.69305886 -114.25 770.75 C-115.39001465 770.75563965 -116.5300293 770.7612793 -117.70458984 770.76708984 C-137.09592092 771.0457247 -153.67362985 777.05002507 -170.42578125 786.42578125 C-173.4375 788.0625 -173.4375 788.0625 -176.4375 789.0625 C-175.99921875 789.65933594 -175.5609375 790.25617187 -175.109375 790.87109375 C-172.87502714 793.9274273 -170.65398251 796.99320421 -168.4375 800.0625 C-167.98761719 800.68398926 -167.53773438 801.30547852 -167.07421875 801.94580078 C-161.24776836 810.01736067 -155.64743208 818.17951932 -150.375 826.625 C-144.96863424 835.28217245 -139.34804638 843.74145346 -133.4375 852.0625 C-132.89335449 852.83126465 -132.34920898 853.6000293 -131.78857422 854.39208984 C-124.28014529 864.94797032 -116.4879554 874.79625534 -107.4375 884.0625 C-106.63183594 884.94164062 -105.82617188 885.82078125 -104.99609375 886.7265625 C-92.66045888 899.85476699 -77.32619581 908.35698619 -59.4375 911.0625 C-58.97097097 909.05283647 -58.51346357 907.04092678 -58.08203125 905.0234375 C-57.63261293 902.95883698 -57.1480103 900.90171691 -56.63671875 898.8515625 C-51.90055811 877.79697158 -54.44055536 855.99656859 -56.78125 834.7734375 C-57.34763649 829.49158848 -57.57567854 824.37085894 -57.4375 819.0625 C-46.65771417 819.40417308 -36.83387502 821.35642176 -26.4375 824.0625 C-26.88017309 830.86568649 -27.47615901 837.61599885 -28.375 844.375 C-29.26917053 851.19378773 -29.92316157 858.02237818 -30.5 864.875 C-30.57919678 865.79772705 -30.65839355 866.7204541 -30.73999023 867.67114258 C-30.99559266 870.80032783 -31.22190693 873.93029466 -31.4375 877.0625 C-31.52797607 878.36598389 -31.61845215 879.66946777 -31.71166992 881.01245117 C-32.61736159 895.24426186 -32.63542405 909.48147121 -32.62617874 923.73752594 C-32.62498777 925.77088076 -32.62553567 927.80423047 -32.62619019 929.83758545 C-32.62488939 948.64922898 -32.47417861 967.4181456 -30.68334961 986.16064453 C-30.51638762 988.13135974 -30.41258546 990.1082351 -30.36547852 992.08544922 C-30.17540892 998.32695647 -30.17540892 998.32695647 -26.76953125 1003.3046875 C-25.61926737 1004.21211604 -24.44436271 1005.08895344 -23.25 1005.9375 C-21.97150866 1006.93697853 -20.69554195 1007.93969331 -19.421875 1008.9453125 C-18.76380859 1009.45223633 -18.10574219 1009.95916016 -17.42773438 1010.48144531 C-14.13593241 1013.09647346 -11.06820005 1015.94125646 -8 1018.8125 C-7.40767578 1019.36534668 -6.81535156 1019.91819336 -6.20507812 1020.48779297 C-1.98812285 1024.46183056 1.87423591 1028.59212634 5.5625 1033.0625 C6.366875 1033.97902344 7.17125 1034.89554688 8 1035.83984375 C19.37257348 1048.84001007 29.0898034 1063.02383449 37.5625 1078.0625 C37.95115234 1078.7440918 38.33980469 1079.42568359 38.74023438 1080.12792969 C46.69740308 1094.20353326 52.79787219 1108.97465357 58.5625 1124.0625 C58.87171387 1124.86977539 59.18092773 1125.67705078 59.49951172 1126.50878906 C72.94844051 1162.33472248 77.86538956 1201.04685667 81.36395264 1238.92077637 C81.54692964 1240.89454308 81.7363026 1242.86771408 81.92626953 1244.84082031 C87.82779599 1308.64063099 82.56296988 1373.75650178 77.54907227 1437.44702148 C77.33204972 1440.204253 77.11512093 1442.96149181 76.8984375 1445.71875 C76.81716142 1446.75286105 76.81716142 1446.75286105 76.73424339 1447.80786324 C75.36116521 1465.32440759 74.15464357 1482.85195191 72.97661591 1500.3825531 C72.81585336 1502.76284922 72.65286317 1505.14298163 72.48907471 1507.52307129 C70.17659984 1541.18535242 69.37323101 1574.74030348 69.37664795 1608.47842407 C69.37692668 1612.74357484 69.37063953 1617.00863926 69.35870361 1621.27377319 C69.3020008 1642.16604556 69.24659816 1663.01823507 70.50390625 1683.87890625 C70.5819 1685.25864817 70.65939019 1686.63841865 70.73634338 1688.01821899 C71.08728292 1694.12873728 71.51120028 1700.21560588 72.08129883 1706.30957031 C73.1538008 1720.47357129 73.1538008 1720.47357129 70.29492188 1725.12475586 C67.1471556 1728.7575643 63.50262958 1731.39326783 59.42034912 1733.88626099 C56.35872696 1735.82463122 53.61222957 1738.14464881 50.8125 1740.4375 C49.64835562 1741.34698779 48.48229689 1742.25404415 47.3125 1743.15625 C44.63561249 1745.22683393 41.97092998 1747.31201919 39.3125 1749.40625 C28.9228358 1757.57264907 18.34372016 1765.42163946 7.5625 1773.0625 C6.78712891 1773.61373535 6.01175781 1774.1649707 5.21289062 1774.73291016 C-58.23125776 1819.76994178 -126.28298512 1859.97158109 -199.81689453 1886.12036133 C-201.99287084 1886.90265056 -204.14940991 1887.71785547 -206.3046875 1888.5546875 C-212.29536926 1890.81548243 -218.44599227 1892.61533532 -224.5625 1894.5 C-225.79226563 1894.88220703 -227.02203125 1895.26441406 -228.2890625 1895.65820312 C-251.11492878 1902.71935609 -251.11492878 1902.71935609 -262.3125 1905.125 C-262.97378906 1905.27259766 -263.63507812 1905.42019531 -264.31640625 1905.57226562 C-296.137081 1912.54222858 -327.68348685 1914.44861319 -360.16725922 1914.43811417 C-362.47277964 1914.43750717 -364.77828265 1914.4400309 -367.08380127 1914.44271851 C-400.2492695 1914.45661565 -431.99126088 1910.94314476 -464.4375 1904.0625 C-465.19417969 1903.90700684 -465.95085937 1903.75151367 -466.73046875 1903.59130859 C-529.73468048 1890.58543917 -591.65481421 1860.57428774 -646.58203125 1827.76220703 C-649.45210395 1826.05380705 -652.33333753 1824.36593759 -655.21875 1822.68359375 C-666.49352565 1816.09907065 -677.55455816 1809.27472223 -688.4375 1802.0625 C-689.24509766 1801.53043945 -690.05269531 1800.99837891 -690.88476562 1800.45019531 C-715.03798089 1784.53478769 -738.63163883 1767.86080069 -761.4375 1750.0625 C-762.00807129 1749.6180957 -762.57864258 1749.17369141 -763.16650391 1748.71582031 C-770.10144353 1743.31084146 -776.97983335 1737.85126794 -783.7421875 1732.23046875 C-786.21544862 1730.06454037 -786.21544862 1730.06454037 -788.53393555 1729.0847168 C-791.21571376 1727.65166276 -792.67022476 1726.56086741 -794.4375 1724.0625 C-795.36420459 1718.17446678 -794.9050195 1712.42406965 -794.5 1706.5 C-794.42001131 1704.94224859 -794.34381485 1703.38429765 -794.27148438 1701.82617188 C-794.11046799 1698.46789161 -793.93105815 1695.11117891 -793.74145508 1691.75439453 C-792.32634422 1665.9565531 -792.15308927 1640.14220332 -792.125 1614.3125 C-792.12370213 1613.32444744 -792.12240425 1612.33639488 -792.12106705 1611.31840134 C-792.08269718 1572.52725142 -793.54609393 1533.98919802 -796.27976227 1495.30197906 C-796.44094053 1493.01365312 -796.60024026 1490.72520342 -796.75897217 1488.43670654 C-798.37155525 1465.19316561 -799.99163808 1441.94439748 -801.97314453 1418.72900391 C-803.42228684 1401.65043754 -804.31706068 1384.55853706 -805.0625 1367.4375 C-805.09520493 1366.69581825 -805.12790985 1365.95413651 -805.16160583 1365.18997955 C-806.10413819 1343.7695546 -806.7191727 1322.38220489 -806.6875 1300.9375 C-806.68663391 1299.85732605 -806.68576782 1298.7771521 -806.68487549 1297.66424561 C-806.63643442 1274.54985515 -805.99445409 1251.45032056 -803.75 1228.4375 C-803.62369705 1227.11582825 -803.62369705 1227.11582825 -803.49484253 1225.76745605 C-801.80294796 1208.31661043 -799.00724227 1191.21982883 -795.4375 1174.0625 C-795.12643311 1172.51876709 -795.12643311 1172.51876709 -794.80908203 1170.94384766 C-784.99233331 1122.51400906 -764.66240222 1075.78357046 -732.4375 1038.0625 C-731.81230469 1037.32515625 -731.18710937 1036.5878125 -730.54296875 1035.828125 C-725.27258618 1029.7988905 -719.63385959 1024.12491131 -714 1018.4375 C-712.81978271 1017.23770508 -712.81978271 1017.23770508 -711.61572266 1016.01367188 C-706.79457926 1011.18555143 -701.80834405 1006.82315108 -696.38647461 1002.67822266 C-694.15140382 1000.82532293 -693.54559231 999.85620907 -693.15625 996.99731445 C-692.91179028 994.12354853 -692.66907925 991.24983925 -692.4375 988.375 C-692.355 987.43205078 -692.2725 986.48910156 -692.1875 985.51757812 C-690.49619113 965.0236714 -690.23162988 944.49059748 -690.25 923.9375 C-690.25060425 922.68048279 -690.2512085 921.42346558 -690.25183105 920.12835693 C-690.28584443 894.03304632 -691.94288179 868.53641038 -695.11621094 842.64111328 C-695.2466832 841.56325562 -695.2466832 841.56325562 -695.37979126 840.46362305 C-695.61710982 838.51194908 -695.85940435 836.56088201 -696.10205078 834.60986328 C-696.43671421 831.07080967 -696.49622371 827.61499954 -696.4375 824.0625 C-692.58580593 823.21745567 -688.73080126 822.38858365 -684.875 821.5625 C-683.78896484 821.32402344 -682.70292969 821.08554687 -681.58398438 820.83984375 C-676.09624671 819.67223999 -671.05094746 818.74035093 -665.4375 819.0625 C-666.18384303 834.22504787 -666.18384303 834.22504787 -666.94921875 840.51953125 C-669.58390202 862.20895397 -670.66067629 884.9436889 -664.4375 906.0625 C-664.08391913 907.72498893 -663.74126539 909.39019157 -663.4375 911.0625 C-647.9996694 907.83458996 -635.46908448 902.64525493 -623.4375 892.0625 C-622.72980469 891.4746875 -622.02210938 890.886875 -621.29296875 890.28125 C-616.50206067 886.25065811 -612.4123492 881.8907501 -608.4375 877.0625 C-607.8194751 876.3209668 -607.8194751 876.3209668 -607.18896484 875.56445312 C-594.99857656 860.8923722 -584.30977274 845.16925868 -574.0390625 829.11328125 C-571.42316292 825.02581494 -568.75364777 820.97573808 -566.0625 816.9375 C-565.6696582 816.34606201 -565.27681641 815.75462402 -564.87207031 815.14526367 C-562.87694605 812.15725467 -560.8294441 809.22948409 -558.69921875 806.3359375 C-554.31783123 799.9946547 -555.31646548 792.49939888 -555.4375 785.0625 C-582.17985528 770.56312925 -611.55955352 766.87242637 -640.96484375 775.31640625 C-660.7577755 781.38541554 -678.26359993 791.0224317 -694.35253906 803.96435547 C-698.23600714 807.0625 -698.23600714 807.0625 -700.4375 807.0625 C-700.51677734 806.38711182 -700.59605469 805.71172363 -700.67773438 805.01586914 C-707.29731064 750.37236427 -727.64320905 700.55128485 -749.77703857 650.51005554 C-766.48288519 612.732704 -766.48288519 612.732704 -772.54345703 596.45361328 C-773.43670482 594.06462671 -774.35460528 591.68632546 -775.27734375 589.30859375 C-806.45534944 508.13433848 -809.9502442 416.9935851 -792.4375 212.0625 C-792.15930579 210.1063109 -791.88130728 208.15009396 -791.60351562 206.19384766 C-790.57578083 198.96162268 -789.5461473 191.72969327 -788.50073242 184.5 C-787.02739824 174.30058115 -785.63920562 164.0945218 -784.3125 153.875 C-777.46428149 101.8313161 -766.77474297 35.2006204 -723.07421875 0.16796875 C-709.15007862 -10.0253013 -695.32846316 -14.5001958 -678.125 -14.25 C-676.99771484 -14.25322266 -675.87042969 -14.25644531 -674.70898438 -14.25976562 C-664.34288858 -14.19273032 -658.63683093 -12.89885171 -650.98046875 -5.6015625 C-631.66516949 14.63351291 -624.25151847 39.82698997 -622.91796875 67.23828125 C-622.87510239 68.10817184 -622.83223602 68.97806244 -622.78807068 69.87431335 C-622.38335009 78.50536393 -622.20819606 87.13655464 -622.05072021 95.77496338 C-621.06289424 146.4132292 -610.96597782 195.11791172 -596.20800781 243.50927734 C-594.94321908 247.70039287 -593.75488517 251.91282724 -592.5625 256.125 C-590.83463355 262.20748942 -589.08432223 268.28285543 -587.30859375 274.3515625 C-583.38924043 287.75051015 -579.54080707 301.15874359 -575.95898438 314.65307617 C-574.59272986 319.79506811 -573.2028726 324.9263394 -571.73046875 330.0390625 C-564.6239303 354.72207772 -558.59950334 379.70713754 -554.4375 405.0625 C-551.4953259 402.1203259 -550.51981989 398.38814891 -549.0625 394.5625 C-534.55631535 357.56765819 -515.69961801 325.03371103 -488.4375 296.0625 C-487.82132813 295.40378906 -487.20515625 294.74507813 -486.5703125 294.06640625 C-478.74773179 285.96311092 -469.56965494 279.33236462 -460.5625 272.625 C-459.74168945 272.00939209 -458.92087891 271.39378418 -458.07519531 270.75952148 C-457.28983398 270.18016846 -456.50447266 269.60081543 -455.6953125 269.00390625 C-454.9955127 268.48513916 -454.29571289 267.96637207 -453.57470703 267.43188477 C-451.27752691 265.95999953 -448.99520681 264.99697146 -446.4375 264.0625 C-446.5082373 264.73224854 -446.57897461 265.40199707 -446.65185547 266.09204102 C-447.43775774 274.32882163 -447.59159241 282.51497653 -447.56787109 290.7800293 C-447.56251598 292.99339674 -447.56784795 295.20656058 -447.57421875 297.41992188 C-447.57780877 306.01262807 -447.25539246 314.5007123 -446.4375 323.0625 C-445.65963135 322.74611572 -444.8817627 322.42973145 -444.08032227 322.10375977 C-397.68309126 303.27584856 -397.68309126 303.27584856 -375.77636719 297.69921875 C-374.0780414 297.23687703 -372.39218614 296.72793955 -370.71582031 296.19140625 C-358.57981063 292.40565684 -346.09521587 290.65373074 -333.5625 288.6875 C-332.34361084 288.49373779 -331.12472168 288.29997559 -329.86889648 288.1003418 C-312.26071488 285.30584775 -294.62830353 282.77424697 -276.9375 280.5625 C-275.95573792 280.43885071 -274.97397583 280.31520142 -273.96246338 280.18780518 C-262.4633414 278.75165884 -251.01530867 277.61460903 -239.4375 277.0625 C-242.72847093 280.46204271 -246.21793747 283.02003933 -250.1875 285.5625 C-268.14797785 297.30256294 -286.36806696 310.72952711 -301.4375 326.0625 C-299.89255859 326.20945312 -299.89255859 326.20945312 -298.31640625 326.359375 C-283.17933349 327.90379101 -269.03788245 331.45460188 -254.5390625 335.99780273 C-250.04558812 337.38057848 -245.81932477 338.38916262 -241.125 338.875 C-219.1772844 342.07186614 -195.85354016 367.1207149 -183 383.6875 C-177.77569781 390.7129767 -173.35306392 398.23137216 -169.4375 406.0625 C-169.15869995 404.77339722 -169.15869995 404.77339722 -168.87426758 403.45825195 C-165.39085602 387.37659138 -161.86423509 371.31539825 -157.97851562 355.32519531 C-157.45222728 353.12409408 -156.94831052 350.91922433 -156.453125 348.7109375 C-154.58069057 340.40093167 -152.36011764 332.27020302 -149.85742188 324.12768555 C-147.75005003 317.22839591 -145.85102519 310.28455722 -144 303.3125 C-140.90478987 291.67151953 -137.57954746 280.10903666 -134.17041016 268.55664062 C-132.9225531 264.31010242 -131.71756254 260.05158163 -130.51171875 255.79296875 C-129.67691377 252.89391873 -128.82362909 250.00284513 -127.95703125 247.11328125 C-118.56493471 215.65292619 -110.75606072 183.86841436 -105.1875 151.5 C-105.03627686 150.63415283 -104.88505371 149.76830566 -104.72924805 148.8762207 C-101.93738495 131.89330645 -101.17532146 114.99800782 -101.03186035 97.81237793 C-100.66087548 58.51498822 -99.14622062 22.02849482 -70.0625 -7.5625 C-52.26307817 -25.02288522 -17.42975051 -13.532415 0 0 Z " fill="#E5E6E8" transform="translate(1414.4375,84.9375)"/>
<path d="M0 0 C6.73624653 2.38908926 12.25486659 6.85500138 18 11 C18.65033203 11.46792969 19.30066406 11.93585938 19.97070312 12.41796875 C29.21077232 19.10379961 37.7112512 26.17108221 46 34 C47.76734104 35.56644904 49.53801155 37.12915225 51.3125 38.6875 C55.58532019 42.53303817 59.31819278 46.59552401 63 51 C63.80953125 51.92167969 64.6190625 52.84335938 65.453125 53.79296875 C76.81688854 66.7913453 86.53071892 80.96739689 95 96 C95.58297852 97.0223877 95.58297852 97.0223877 96.17773438 98.06542969 C104.13490308 112.14103326 110.23537219 126.91215357 116 142 C116.30921387 142.80727539 116.61842773 143.61455078 116.93701172 144.44628906 C130.38594051 180.27222248 135.30288956 218.98435667 138.80145264 256.85827637 C138.98442964 258.83204308 139.1738026 260.80521408 139.36376953 262.77832031 C145.26529599 326.57813099 140.00046988 391.69400178 134.98657227 455.38452148 C134.76954972 458.141753 134.55262093 460.89899181 134.3359375 463.65625 C134.28175344 464.34565737 134.22756939 465.03506474 134.17174339 465.74536324 C132.79866521 483.26190759 131.59214357 500.78945191 130.41411591 518.3200531 C130.25335336 520.70034922 130.09036317 523.08048163 129.92657471 525.46057129 C127.61409984 559.12285242 126.81073101 592.67780348 126.81414795 626.41592407 C126.81442668 630.68107484 126.80813953 634.94613926 126.79620361 639.21127319 C126.7395008 660.10354556 126.68409816 680.95573507 127.94140625 701.81640625 C128.0194 703.19614817 128.09689019 704.57591865 128.17384338 705.95571899 C128.52478292 712.06623728 128.94870028 718.15310588 129.51879883 724.24707031 C130.5913008 738.41107129 130.5913008 738.41107129 127.73242188 743.06225586 C124.5846556 746.6950643 120.94012958 749.33076783 116.85784912 751.82376099 C113.79622696 753.76213122 111.04972957 756.08214881 108.25 758.375 C107.08585562 759.28448779 105.91979689 760.19154415 104.75 761.09375 C102.07311249 763.16433393 99.40842998 765.24951919 96.75 767.34375 C86.3603358 775.51014907 75.78122016 783.35913946 65 791 C64.22462891 791.55123535 63.44925781 792.1024707 62.65039062 792.67041016 C-0.79375776 837.70744178 -68.84548512 877.90908109 -142.37939453 904.05786133 C-144.55537084 904.84015056 -146.71190991 905.65535547 -148.8671875 906.4921875 C-154.85786926 908.75298243 -161.00849227 910.55283532 -167.125 912.4375 C-168.96964844 913.01081055 -168.96964844 913.01081055 -170.8515625 913.59570312 C-193.67742878 920.65685609 -193.67742878 920.65685609 -204.875 923.0625 C-205.86693359 923.28389648 -205.86693359 923.28389648 -206.87890625 923.50976562 C-238.699581 930.47972858 -270.24598685 932.38611319 -302.72975922 932.37561417 C-305.03527964 932.37500717 -307.34078265 932.3775309 -309.64630127 932.38021851 C-342.8117695 932.39411565 -374.55376088 928.88064476 -407 922 C-407.75667969 921.84450684 -408.51335937 921.68901367 -409.29296875 921.52880859 C-472.29718048 908.52293917 -534.21731421 878.51178774 -589.14453125 845.69970703 C-592.01460395 843.99130705 -594.89583753 842.30343759 -597.78125 840.62109375 C-609.05602565 834.03657065 -620.11705816 827.21222223 -631 820 C-631.80759766 819.46793945 -632.61519531 818.93587891 -633.44726562 818.38769531 C-657.60048089 802.47228769 -681.19413883 785.79830069 -704 768 C-704.57057129 767.5555957 -705.14114258 767.11119141 -705.72900391 766.65332031 C-712.66394353 761.24834146 -719.54233335 755.78876794 -726.3046875 750.16796875 C-728.77794862 748.00204037 -728.77794862 748.00204037 -731.09643555 747.0222168 C-733.77821376 745.58916276 -735.23272476 744.49836741 -737 742 C-737.92670459 736.11196678 -737.4675195 730.36156965 -737.0625 724.4375 C-736.98251131 722.87974859 -736.90631485 721.32179765 -736.83398438 719.76367188 C-736.67296799 716.40539161 -736.49355815 713.04867891 -736.30395508 709.69189453 C-734.88884422 683.8940531 -734.71558927 658.07970332 -734.6875 632.25 C-734.68620213 631.26194744 -734.68490425 630.27389488 -734.68356705 629.25590134 C-734.64519718 590.46475142 -736.10859393 551.92669802 -738.84226227 513.23947906 C-739.00344053 510.95115312 -739.16274026 508.66270342 -739.32147217 506.37420654 C-740.93405525 483.13066561 -742.55413808 459.88189748 -744.53564453 436.66650391 C-745.98478684 419.58793754 -746.87956068 402.49603706 -747.625 385.375 C-747.65770493 384.63331825 -747.69040985 383.89163651 -747.72410583 383.12747955 C-748.66663819 361.7070546 -749.2816727 340.31970489 -749.25 318.875 C-749.24913391 317.79482605 -749.24826782 316.7146521 -749.24737549 315.60174561 C-749.19893442 292.48735515 -748.55695409 269.38782056 -746.3125 246.375 C-746.22829803 245.4938855 -746.14409607 244.612771 -746.05734253 243.70495605 C-744.36544796 226.25411043 -741.56974227 209.15732883 -738 192 C-737.79262207 190.97084473 -737.58524414 189.94168945 -737.37158203 188.88134766 C-727.55483331 140.45150906 -707.22490222 93.72107046 -675 56 C-674.37480469 55.26265625 -673.74960937 54.5253125 -673.10546875 53.765625 C-667.83508618 47.7363905 -662.19635959 42.06241131 -656.5625 36.375 C-655.77568848 35.57513672 -654.98887695 34.77527344 -654.17822266 33.95117188 C-648.78313247 28.54827403 -643.17809765 23.50258952 -637 19 C-636.67 19 -636.34 19 -636 19 C-635.7547597 22.28716319 -635.62542401 24.36652591 -637.328125 27.24609375 C-638.27945313 28.33083984 -638.27945313 28.33083984 -639.25 29.4375 C-640.35021484 30.73494141 -640.35021484 30.73494141 -641.47265625 32.05859375 C-642.30667969 33.02925781 -643.14070312 33.99992187 -644 35 C-679.14320031 77.50556703 -704.92663293 125.88950372 -707 182 C-707.04125 182.93070313 -707.0825 183.86140625 -707.125 184.8203125 C-708.37372771 239.60824063 -684.61432659 291.76758887 -648.12890625 331.6484375 C-646.32175403 333.64459463 -644.59642854 335.68076365 -642.875 337.75 C-633.21707174 348.79081868 -621.74525784 358.2755774 -610 367 C-609.06994141 367.69875244 -609.06994141 367.69875244 -608.12109375 368.41162109 C-550.8944214 411.14376001 -484.08456541 428.29158307 -413.5625 428.1875 C-412.7241864 428.18656342 -411.8858728 428.18562683 -411.02215576 428.18466187 C-382.33161092 428.11626922 -354.03485474 425.79152484 -325.52197266 422.67700195 C-323.99101204 422.51209511 -323.99101204 422.51209511 -322.42912292 422.34385681 C-320.52228015 422.1377395 -318.61590627 421.92721132 -316.7101593 421.7111969 C-307.16081441 420.68108392 -298.03143233 420.94682265 -288.5 422.0234375 C-286.47578529 422.24163207 -284.45153243 422.45947292 -282.42724609 422.67700195 C-281.37881531 422.79129547 -280.33038452 422.90558899 -279.25018311 423.02334595 C-190.87634447 432.58496679 -101.83415483 431.7696685 6.8125 361.6328125 C10.57559525 358.55616704 14.19684997 355.33412828 17.7734375 352.04296875 C19.81427926 350.17040692 21.89463697 348.36170466 24 346.5625 C31.98903654 339.57008371 39.17382117 331.99551444 45.71484375 323.63574219 C46.62485298 322.47748576 47.54228129 321.32504056 48.46484375 320.17675781 C73.55124353 288.94387729 91.35715511 251.05803383 96 211 C96.11085938 210.12601563 96.22171875 209.25203125 96.3359375 208.3515625 C102.1040162 153.94454987 83.82006406 98.49187535 50 56 C48.94425781 54.67355469 48.94425781 54.67355469 47.8671875 53.3203125 C34.57050705 36.87818076 20.50435109 21.30260558 5.43481445 6.47143555 C4.37653442 5.42596558 4.37653442 5.42596558 3.296875 4.359375 C2.66104492 3.73514648 2.02521484 3.11091797 1.37011719 2.46777344 C0 1 0 1 0 0 Z " fill="#F1F1F1" transform="translate(1357,1067)"/>
<path d="M0 0 C1.54155782 1.33052654 3.06326047 2.68446437 4.5625 4.0625 C5.30628906 4.72636719 6.05007813 5.39023438 6.81640625 6.07421875 C50.56237567 47.23346998 57.51400725 121.43533052 64.66796875 177.73828125 C64.76493042 178.50123505 64.86189209 179.26418884 64.96179199 180.05026245 C65.37055494 183.26908319 65.77927382 186.48790072 66.18365479 189.70727539 C67.44333057 199.73062887 68.78336187 209.73685604 70.26171875 219.73046875 C75.91497441 257.9913729 80.60709622 296.41288041 82.5625 335.0625 C82.60346802 335.84668304 82.64443604 336.63086609 82.68664551 337.43881226 C83.48627159 353.00161637 83.80312751 368.54240838 83.8125 384.125 C83.81350708 385.30594238 83.81451416 386.48688477 83.81555176 387.70361328 C83.79601377 422.01231959 81.7624733 456.13578866 76.5625 490.0625 C76.28817139 491.90739014 76.28817139 491.90739014 76.00830078 493.78955078 C71.63364569 522.93507802 64.78872704 551.08026832 55.5625 579.0625 C55.26375977 579.9817627 54.96501953 580.90102539 54.65722656 581.84814453 C48.12826353 601.83499929 39.37457014 620.95379978 30.9375 640.1875 C3.67240638 702.33094102 3.67240638 702.33094102 -16.4375 767.0625 C-20.39121385 766.54410699 -23.59259949 765.12082516 -27.15722656 763.3840332 C-64.70824638 745.20724214 -108.03030042 735.19855548 -149.4375 732.0625 C-150.1584082 732.00610352 -150.87931641 731.94970703 -151.62207031 731.89160156 C-173.30241388 730.2638903 -194.80993801 730.98830849 -216.4375 733.0625 C-217.93047607 733.19930176 -217.93047607 733.19930176 -219.45361328 733.33886719 C-232.15530748 734.1497874 -232.15530748 734.1497874 -242.484375 740.6796875 C-243.12890625 741.46601562 -243.7734375 742.25234375 -244.4375 743.0625 C-245.45561606 744.13518266 -246.48256663 745.19951254 -247.515625 746.2578125 C-260.62617283 759.77725912 -272.34126869 774.16719369 -282.4375 790.0625 C-283.0975 791.0525 -283.7575 792.0425 -284.4375 793.0625 C-283.138125 793.26875 -281.83875 793.475 -280.5 793.6875 C-269.62982291 796.15799479 -262.40484619 804.19022766 -256.37109375 813.12109375 C-249.05669246 825.12670498 -240.42088409 843.69411166 -242.4375 858.0625 C-248.7219539 872.73477605 -263.60430199 884.65640334 -275.75 894.3125 C-289.72878543 905.70781363 -303.92535666 919.02119319 -306.0625 937.9375 C-306.19404223 939.31188955 -306.32132356 940.68672639 -306.4375 942.0625 C-305.78716797 942.03220703 -305.13683594 942.00191406 -304.46679688 941.97070312 C-291.13525964 941.36851416 -277.80841048 940.94369032 -264.46337891 940.88525391 C-263.08559043 940.87848899 -261.70781393 940.86830902 -260.33007812 940.85449219 C-248.94653456 940.74898617 -239.3042567 941.65011264 -229 946.625 C-228.26845703 946.97578613 -227.53691406 947.32657227 -226.78320312 947.68798828 C-220.21503171 950.96194685 -214.7360116 954.96942342 -209.4375 960.0625 C-208.64988281 960.79855469 -207.86226562 961.53460937 -207.05078125 962.29296875 C-194.65204496 974.86010893 -189.60942074 991.01574248 -189 1008.375 C-189.50033387 1025.16206382 -195.43033841 1039.98029303 -201.60629272 1055.35484314 C-202.90018951 1058.58418803 -204.17268587 1061.82166842 -205.4375 1065.0625 C-205.70242249 1065.73642792 -205.96734497 1066.41035583 -206.24029541 1067.10470581 C-210.16062902 1077.19223443 -212.65881036 1087.00152395 -214.22509766 1097.70410156 C-214.80358557 1101.64049835 -215.44249908 1105.56732071 -216.0703125 1109.49609375 C-216.18981262 1110.2534079 -216.30931274 1111.01072205 -216.43243408 1111.79098511 C-219.86579228 1133.50693076 -225.12218219 1150.31250005 -243.625 1164.0625 C-272.15628794 1184.05943249 -308.58948395 1192.1668937 -342.375 1197.9375 C-343.62514893 1198.1530957 -344.87529785 1198.36869141 -346.16333008 1198.59082031 C-359.1809336 1200.71190791 -370.53314339 1199.69611117 -383.4375 1197.5 C-384.22962891 1197.36689423 -385.02175781 1197.23378845 -385.83789062 1197.09664917 C-400.30450347 1194.64547919 -414.41227503 1191.41029544 -428.4375 1187.0625 C-429.75693604 1186.659104 -429.75693604 1186.659104 -431.10302734 1186.24755859 C-454.49385537 1178.96714667 -485.75773277 1167.33103061 -498.26977539 1144.58349609 C-503.6946185 1132.87182351 -505.67658108 1120.15966257 -507.5 1107.5 C-509.54647378 1093.47999845 -511.96138306 1079.83594174 -517.125 1066.5625 C-517.36847168 1065.92634766 -517.61194336 1065.29019531 -517.86279297 1064.63476562 C-519.42602032 1060.57209761 -521.05216435 1056.53567727 -522.68359375 1052.5 C-531.34327218 1030.98817418 -538.553338 1009.03980759 -530.4375 986.0625 C-530.17066406 985.21945312 -529.90382813 984.37640625 -529.62890625 983.5078125 C-523.47019973 965.9349699 -508.47489975 953.43070741 -492.22265625 945.4921875 C-481.66751787 940.83355139 -471.89153731 940.8945893 -460.5 940.9375 C-459.80195251 940.93871857 -459.10390503 940.93993713 -458.38470459 940.94119263 C-448.60463784 940.96114511 -438.83626909 941.12528219 -429.0625 941.5 C-428.01199463 941.53915527 -426.96148926 941.57831055 -425.87915039 941.61865234 C-418.69427516 941.93411242 -418.69427516 941.93411242 -416.4375 943.0625 C-418.01678722 922.21590869 -430.83285479 908.67843865 -445.69921875 895.41015625 C-448.33789762 893.14789376 -451.02956409 890.9753063 -453.75 888.8125 C-478.12939719 869.01517029 -478.12939719 869.01517029 -480.98828125 856.6875 C-481.99775851 839.15143781 -471.33242768 817.6307309 -460.46484375 804.71875 C-455.09441197 798.99598373 -449.23007027 794.14869073 -441.1796875 793.58203125 C-435.55230556 793.72660483 -432.27693078 796.33560291 -428 799.75 C-426.41821971 800.94954975 -424.83618115 802.14875899 -423.25390625 803.34765625 C-422.45484863 803.96527832 -421.65579102 804.58290039 -420.83251953 805.21923828 C-402.83620999 819.06960903 -384.0237414 833.54525172 -361.4375 838.0625 C-361.4375 658.8725 -361.4375 479.6825 -361.4375 295.0625 C-362.0975 294.7325 -362.7575 294.4025 -363.4375 294.0625 C-335.19981401 288.86486722 -306.92342968 284.41065682 -278.4375 280.8125 C-277.41192993 280.68167023 -276.38635986 280.55084045 -275.32971191 280.41604614 C-263.37296242 278.89765453 -251.48187008 277.60877948 -239.4375 277.0625 C-242.72847093 280.46204271 -246.21793747 283.02003933 -250.1875 285.5625 C-268.14797785 297.30256294 -286.36806696 310.72952711 -301.4375 326.0625 C-299.89255859 326.20945312 -299.89255859 326.20945312 -298.31640625 326.359375 C-283.17933349 327.90379101 -269.03788245 331.45460188 -254.5390625 335.99780273 C-250.04558812 337.38057848 -245.81932477 338.38916262 -241.125 338.875 C-219.1772844 342.07186614 -195.85354016 367.1207149 -183 383.6875 C-177.77569781 390.7129767 -173.35306392 398.23137216 -169.4375 406.0625 C-169.15869995 404.77339722 -169.15869995 404.77339722 -168.87426758 403.45825195 C-165.39085602 387.37659138 -161.86423509 371.31539825 -157.97851562 355.32519531 C-157.45222728 353.12409408 -156.94831052 350.91922433 -156.453125 348.7109375 C-154.58069057 340.40093167 -152.36011764 332.27020302 -149.85742188 324.12768555 C-147.75005003 317.22839591 -145.85102519 310.28455722 -144 303.3125 C-140.90478987 291.67151953 -137.57954746 280.10903666 -134.17041016 268.55664062 C-132.9225531 264.31010242 -131.71756254 260.05158163 -130.51171875 255.79296875 C-129.67691377 252.89391873 -128.82362909 250.00284513 -127.95703125 247.11328125 C-118.56493471 215.65292619 -110.75606072 183.86841436 -105.1875 151.5 C-105.03627686 150.63415283 -104.88505371 149.76830566 -104.72924805 148.8762207 C-101.93738495 131.89330645 -101.17532146 114.99800782 -101.03186035 97.81237793 C-100.66087548 58.51498822 -99.14622062 22.02849482 -70.0625 -7.5625 C-52.26307817 -25.02288522 -17.42975051 -13.532415 0 0 Z " fill="#F1F1F1" transform="translate(1414.4375,84.9375)"/>
<path d="M0 0 C1.12728516 -0.00322266 2.25457031 -0.00644531 3.41601562 -0.00976562 C13.78211142 0.05726968 19.48816907 1.35114829 27.14453125 8.6484375 C46.45983051 28.88351291 53.87348153 54.07698997 55.20703125 81.48828125 C55.24989761 82.35817184 55.29276398 83.22806244 55.33692932 84.12431335 C55.74164991 92.75536393 55.91680394 101.38655464 56.07427979 110.02496338 C57.06210576 160.6632292 67.15902218 209.36791172 81.91699219 257.75927734 C83.18178092 261.95039287 84.37011483 266.16282724 85.5625 270.375 C87.29036645 276.45748942 89.04067777 282.53285543 90.81640625 288.6015625 C94.73575957 302.00051015 98.58419293 315.40874359 102.16601562 328.90307617 C103.53227014 334.04506811 104.9221274 339.1763394 106.39453125 344.2890625 C113.5010697 368.97207772 119.52549666 393.95713754 123.6875 419.3125 C126.6296741 416.3703259 127.60518011 412.63814891 129.0625 408.8125 C143.56868465 371.81765819 162.42538199 339.28371103 189.6875 310.3125 C190.30367187 309.65378906 190.91984375 308.99507813 191.5546875 308.31640625 C199.37726821 300.21311092 208.55534506 293.58236462 217.5625 286.875 C218.38331055 286.25939209 219.20412109 285.64378418 220.04980469 285.00952148 C220.83516602 284.43016846 221.62052734 283.85081543 222.4296875 283.25390625 C223.1294873 282.73513916 223.82928711 282.21637207 224.55029297 281.68188477 C226.84747309 280.20999953 229.12979319 279.24697146 231.6875 278.3125 C231.6167627 278.98224854 231.54602539 279.65199707 231.47314453 280.34204102 C230.68724226 288.57882163 230.53340759 296.76497653 230.55712891 305.0300293 C230.56248402 307.24339674 230.55715205 309.45656058 230.55078125 311.66992188 C230.54719123 320.26262807 230.86960754 328.7507123 231.6875 337.3125 C232.46536865 336.99611572 233.2432373 336.67973145 234.04467773 336.35375977 C279.68973014 317.83108125 279.68973014 317.83108125 301.04296875 312.28515625 C304.62974937 311.3844907 304.62974937 311.3844907 307.80078125 310.18359375 C310.6875 309.3125 310.6875 309.3125 316.6875 309.3125 C316.6875 488.5025 316.6875 667.6925 316.6875 852.3125 C293.10749937 852.3125 268.96837661 829.3479593 250.9543457 815.93115234 C250.21917725 815.38410645 249.48400879 814.83706055 248.7265625 814.2734375 C248.0351416 813.75845703 247.3437207 813.24347656 246.63134766 812.71289062 C244.90436249 811.46873251 243.11180529 810.31674848 241.3125 809.1796875 C238.60539185 807.25409569 237.55912561 805.97430221 236.0625 803.0625 C228.89742648 790.38869464 219.22292362 778.99885645 209.43994141 768.27148438 C207.58118439 766.19365402 205.80074127 764.0598951 204.01171875 761.921875 C196.80756065 753.6410858 191.01568015 748.72232517 179.87792969 747.71069336 C178.10983895 747.60180849 176.3403763 747.51366826 174.5703125 747.44384766 C171.43982946 747.30121555 168.33839593 747.02615453 165.21875 746.73046875 C101.18341086 740.87554573 33.80118745 752.01283692 -24.0703125 780.50317383 C-26.3125 781.3125 -26.3125 781.3125 -29.3125 780.3125 C-30.1427967 777.57095429 -30.78510393 774.92090113 -31.375 772.125 C-40.01352102 734.86240099 -56.24268735 699.59826001 -71.65203857 664.76005554 C-88.35788519 626.982704 -88.35788519 626.982704 -94.41845703 610.70361328 C-95.31170482 608.31462671 -96.22960528 605.93632546 -97.15234375 603.55859375 C-128.33034944 522.38433848 -131.8252442 431.2435851 -114.3125 226.3125 C-114.03430579 224.3563109 -113.75630728 222.40009396 -113.47851562 220.44384766 C-112.45078083 213.21162268 -111.4211473 205.97969327 -110.37573242 198.75 C-108.90239824 188.55058115 -107.51420562 178.3445218 -106.1875 168.125 C-99.33928149 116.0813161 -88.64974297 49.4506204 -44.94921875 14.41796875 C-31.02507862 4.2246987 -17.20346316 -0.2501958 0 0 Z " fill="#FEFEFE" transform="translate(736.3125,70.6875)"/>
<path d="M0 0 C0.2452403 3.28716319 0.37457599 5.36652591 -1.328125 8.24609375 C-2.27945313 9.33083984 -2.27945313 9.33083984 -3.25 10.4375 C-4.35021484 11.73494141 -4.35021484 11.73494141 -5.47265625 13.05859375 C-6.30667969 14.02925781 -7.14070312 14.99992187 -8 16 C-43.14320031 58.50556703 -68.92663293 106.88950372 -71 163 C-71.04125 163.93070313 -71.0825 164.86140625 -71.125 165.8203125 C-72.37372771 220.60824063 -48.61432659 272.76758887 -12.12890625 312.6484375 C-10.32175403 314.64459463 -8.59642854 316.68076365 -6.875 318.75 C2.78292826 329.79081868 14.25474216 339.2755774 26 348 C26.93005859 348.69875244 26.93005859 348.69875244 27.87890625 349.41162109 C85.1055786 392.14376001 151.91543459 409.29158307 222.4375 409.1875 C223.2758136 409.18656342 224.1141272 409.18562683 224.97784424 409.18466187 C253.81332778 409.11592372 282.25513022 406.74756221 310.91748047 403.67700195 C311.94715942 403.56706406 312.97683838 403.45712616 314.03771973 403.34385681 C315.97754693 403.1356797 317.91710122 402.92493791 319.85632324 402.7111969 C320.72535278 402.61749313 321.59438232 402.52378937 322.48974609 402.42724609 C323.62046036 402.30305801 323.62046036 402.30305801 324.77401733 402.17636108 C327.17586892 401.98606618 329.59062182 402 332 402 C332 570.3 332 738.6 332 912 C313.10821421 914.36147322 293.86152727 913.28752942 275 911 C274.14809082 910.89816406 273.29618164 910.79632812 272.41845703 910.69140625 C257.79808139 908.8919754 243.40363836 906.05447786 229 903 C228.24332031 902.84450684 227.48664063 902.68901367 226.70703125 902.52880859 C163.70281952 889.52293917 101.78268579 859.51178774 46.85546875 826.69970703 C43.98539605 824.99130705 41.10416247 823.30343759 38.21875 821.62109375 C26.94397435 815.03657065 15.88294184 808.21222223 5 801 C4.19240234 800.46793945 3.38480469 799.93587891 2.55273438 799.38769531 C-21.60048089 783.47228769 -45.19413883 766.79830069 -68 749 C-68.57057129 748.5555957 -69.14114258 748.11119141 -69.72900391 747.65332031 C-76.66394353 742.24834146 -83.54233335 736.78876794 -90.3046875 731.16796875 C-92.77794862 729.00204037 -92.77794862 729.00204037 -95.09643555 728.0222168 C-97.77821376 726.58916276 -99.23272476 725.49836741 -101 723 C-101.92670459 717.11196678 -101.4675195 711.36156965 -101.0625 705.4375 C-100.98251131 703.87974859 -100.90631485 702.32179765 -100.83398438 700.76367188 C-100.67296799 697.40539161 -100.49355815 694.04867891 -100.30395508 690.69189453 C-98.88884422 664.8940531 -98.71558927 639.07970332 -98.6875 613.25 C-98.68620213 612.26194744 -98.68490425 611.27389488 -98.68356705 610.25590134 C-98.64519718 571.46475142 -100.10859393 532.92669802 -102.84226227 494.23947906 C-103.00344053 491.95115312 -103.16274026 489.66270342 -103.32147217 487.37420654 C-104.93405525 464.13066561 -106.55413808 440.88189748 -108.53564453 417.66650391 C-109.98478684 400.58793754 -110.87956068 383.49603706 -111.625 366.375 C-111.65770493 365.63331825 -111.69040985 364.89163651 -111.72410583 364.12747955 C-112.66663819 342.7070546 -113.2816727 321.31970489 -113.25 299.875 C-113.24913391 298.79482605 -113.24826782 297.7146521 -113.24737549 296.60174561 C-113.19893442 273.48735515 -112.55695409 250.38782056 -110.3125 227.375 C-110.22829803 226.4938855 -110.14409607 225.612771 -110.05734253 224.70495605 C-108.36544796 207.25411043 -105.56974227 190.15732883 -102 173 C-101.79262207 171.97084473 -101.58524414 170.94168945 -101.37158203 169.88134766 C-91.55483331 121.45150906 -71.22490222 74.72107046 -39 37 C-38.37480469 36.26265625 -37.74960937 35.5253125 -37.10546875 34.765625 C-31.83508618 28.7363905 -26.19635959 23.06241131 -20.5625 17.375 C-19.77568848 16.57513672 -18.98887695 15.77527344 -18.17822266 14.95117188 C-3.24865652 0 -3.24865652 0 0 0 Z " fill="#FEFEFE" transform="translate(721,1086)"/>
<path d="M0 0 C-0.26554687 1.23492188 -0.53109375 2.46984375 -0.8046875 3.7421875 C-2.80886854 13.28527473 -4.51272877 22.71041106 -5.31591797 32.43701172 C-5.79816398 37.79816398 -5.79816398 37.79816398 -8 40 C-9.25490234 38.96552734 -9.25490234 38.96552734 -10.53515625 37.91015625 C-26.54587683 24.90275536 -44.12600506 14.94886307 -63.8125 8.625 C-64.55209961 8.38628174 -65.29169922 8.14756348 -66.05371094 7.90161133 C-76.51994378 4.71307741 -86.9009513 3.63055886 -97.8125 3.6875 C-99.52252197 3.69595947 -99.52252197 3.69595947 -101.26708984 3.70458984 C-120.65842092 3.9832247 -137.23612985 9.98752507 -153.98828125 19.36328125 C-157 21 -157 21 -160 22 C-159.56171875 22.59683594 -159.1234375 23.19367187 -158.671875 23.80859375 C-156.43752714 26.8649273 -154.21648251 29.93070421 -152 33 C-151.32517578 33.93223389 -151.32517578 33.93223389 -150.63671875 34.88330078 C-144.81026836 42.95486067 -139.20993208 51.11701932 -133.9375 59.5625 C-128.53113424 68.21967245 -122.91054638 76.67895346 -117 85 C-116.45585449 85.76876465 -115.91170898 86.5375293 -115.35107422 87.32958984 C-107.84264529 97.88547032 -100.0504554 107.73375534 -91 117 C-90.19433594 117.87914062 -89.38867188 118.75828125 -88.55859375 119.6640625 C-76.22295888 132.79226699 -60.88869581 141.29448619 -43 144 C-42.53347097 141.99033647 -42.07596357 139.97842678 -41.64453125 137.9609375 C-41.19511293 135.89633698 -40.7105103 133.83921691 -40.19921875 131.7890625 C-35.46305811 110.73447158 -38.00305536 88.93406859 -40.34375 67.7109375 C-40.91013649 62.42908848 -41.13817854 57.30835894 -41 52 C-30.22021417 52.34167308 -20.39637502 54.29392176 -10 57 C-10.44267309 63.80318649 -11.03865901 70.55349885 -11.9375 77.3125 C-12.83167053 84.13128773 -13.48566157 90.95987818 -14.0625 97.8125 C-14.14169678 98.73522705 -14.22089355 99.6579541 -14.30249023 100.60864258 C-14.55809266 103.73782783 -14.78440693 106.86779466 -15 110 C-15.09047607 111.30348389 -15.18095215 112.60696777 -15.27416992 113.94995117 C-16.179866 128.1818311 -16.19720374 142.41891664 -16.18847656 156.67502594 C-16.18748987 158.70838169 -16.1884866 160.74172993 -16.18969727 162.77508545 C-16.19387641 181.61440524 -15.74989393 200.2959526 -14.1875 219.07519531 C-13.88988658 223.7176546 -13.91633143 228.35058408 -14 233 C-20.78247325 228.80195079 -27.31396733 224.40023972 -33.6875 219.6015625 C-35.988515 217.8481791 -35.988515 217.8481791 -39 217 C-38.30962646 217.68513672 -37.61925293 218.37027344 -36.90795898 219.07617188 C-34.31287873 221.65295983 -31.72126708 224.23321362 -29.13061523 226.81445312 C-28.0153271 227.92475584 -26.89913789 229.03415429 -25.78198242 230.14257812 C-19.62793079 236.24977849 -13.59626979 242.36922635 -8 249 C-7.01579309 250.13018821 -6.03014774 251.25912561 -5.04296875 252.38671875 C35.85360164 299.51649056 60.79726331 355.57279088 56.72265625 418.87890625 C52.12354411 475.94861812 20.98072296 530.27848623 -21.91015625 567.52734375 C-23.7060929 568.99768613 -25.51594029 570.45121488 -27.33984375 571.88671875 C-29.09713422 573.28274539 -30.82026588 574.72301127 -32.50390625 576.20703125 C-47.86546433 589.69032022 -65.81949373 600.73135933 -84 610 C-85.29574951 610.66225586 -85.29574951 610.66225586 -86.61767578 611.33789062 C-163.56787938 650.25523497 -246.59999063 646.92591808 -329.98828125 638.12109375 C-330.92631088 638.02321564 -331.86434052 637.92533752 -332.83079529 637.82449341 C-333.70301224 637.73086517 -334.57522919 637.63723694 -335.47387695 637.54077148 C-336.23070267 637.46020004 -336.98752838 637.3796286 -337.76728821 637.2966156 C-340.19529436 636.97405516 -342.598226 636.4803548 -345 636 C-345 569.01 -345 502.02 -345 433 C-333.45 431.02 -321.9 429.04 -310 427 C-280.87976989 420.69995022 -247.29130335 412.83464349 -224 393 C-222.81277344 392.06800781 -222.81277344 392.06800781 -221.6015625 391.1171875 C-205.00209691 377.49569913 -203.06470425 357.84520099 -200.14819336 337.91943359 C-197.25026776 318.30610977 -191.50894295 301.14861306 -184.00854492 282.85986328 C-175.04060461 260.91718176 -169.14987519 237.94131986 -178.59375 214.921875 C-186.08006712 198.15618233 -198.26196642 187.57812127 -214.625 179.625 C-215.32963379 179.27856445 -216.03426758 178.93212891 -216.76025391 178.57519531 C-217.45038574 178.25389648 -218.14051758 177.93259766 -218.8515625 177.6015625 C-219.45822754 177.31619629 -220.06489258 177.03083008 -220.68994141 176.73681641 C-228.3842391 174.28264282 -236.71439406 174.86940314 -244.6875 174.90234375 C-245.98574707 174.9037587 -247.28399414 174.90517365 -248.62158203 174.90663147 C-252.04756652 174.91042175 -255.47350759 174.92022161 -258.8994751 174.93133545 C-262.40563368 174.94162521 -265.91179937 174.94614519 -269.41796875 174.95117188 C-276.2786635 174.96184754 -283.13932966 174.97888126 -290 175 C-290.02300483 173.5657496 -290.03938127 172.13139192 -290.05297852 170.69702148 C-290.06281265 169.8982811 -290.07264679 169.09954071 -290.08277893 168.27659607 C-289.53207277 153.13100924 -274.98469593 140.34736484 -264.82324219 130.68457031 C-261.5946441 127.70153244 -258.1921345 124.96061412 -254.75 122.23046875 C-244.312843 113.76510419 -232.13045454 103.71460473 -227 91 C-226.4393336 85.29201074 -227.69168685 80.27024115 -229.1875 74.8125 C-229.41598633 73.97243408 -229.64447266 73.13236816 -229.87988281 72.2668457 C-234.36432584 56.22123713 -241.88818472 38.75782404 -256.875 29.890625 C-260.77104234 28.04696211 -264.74416295 27.43426909 -269 27 C-263.89820812 17.4929066 -257.83464151 9.30139371 -251 1 C-250.56703613 0.46793945 -250.13407227 -0.06412109 -249.68798828 -0.61230469 C-243.91182916 -7.69731454 -237.80979184 -14.45279914 -231.5625 -21.125 C-230.87583252 -21.86016846 -230.18916504 -22.59533691 -229.48168945 -23.3527832 C-228.829021 -24.04331787 -228.17635254 -24.73385254 -227.50390625 -25.4453125 C-226.92455322 -26.05906738 -226.3452002 -26.67282227 -225.74829102 -27.30517578 C-221.28984992 -31.6272674 -217.52937467 -32.74163041 -211.4375 -33.5625 C-210.5697998 -33.68471924 -209.70209961 -33.80693848 -208.80810547 -33.93286133 C-137.14970622 -43.48773281 -65.32510704 -30.27059884 0 0 Z " fill="#D0D1D3" transform="translate(1398,852)"/>
<path d="M0 0 C2.19779485 1.46033745 4.25304741 3.02414585 6.31518555 4.67041016 C7.89696583 5.86995991 9.4790044 7.06916915 11.0612793 8.26806641 C11.86033691 8.88568848 12.65939453 9.50331055 13.48266602 10.13964844 C43.14699429 34.20130464 43.14699429 34.20130464 78.87768555 41.98291016 C96.50231174 37.84764655 112.47170902 24.42423 126.87768555 13.98291016 C128.53111616 12.78990349 130.18476817 11.59720361 131.83862305 10.40478516 C134.25384047 8.66262223 136.66811221 6.91924535 139.07885742 5.17089844 C140.15103516 4.39335205 140.15103516 4.39335205 141.24487305 3.60009766 C142.19015869 2.91343018 142.19015869 2.91343018 143.15454102 2.21289062 C147.53944505 -0.91705363 150.55165661 -1.75601638 155.87768555 -1.01708984 C166.92149697 2.28056126 174.64418544 12.12195214 180.13549805 21.68212891 C184.41618455 29.79239817 187.29452402 37.96696947 189.69018555 46.79541016 C189.90956787 47.5960791 190.1289502 48.39674805 190.35498047 49.22167969 C191.76540508 54.68686153 193.01752812 59.96737728 190.9519043 65.43212891 C182.66741268 78.80399847 170.79043197 89.51357076 158.56518555 99.23291016 C144.58640011 110.62822378 130.38982889 123.94160335 128.25268555 142.85791016 C128.12114331 144.23229971 127.99386199 145.60713654 127.87768555 146.98291016 C128.52801758 146.95261719 129.17834961 146.92232422 129.84838867 146.89111328 C143.1799259 146.28892432 156.50677507 145.86410048 169.85180664 145.80566406 C171.22959512 145.79889914 172.60737162 145.78871918 173.98510742 145.77490234 C185.36865099 145.66939633 195.01092885 146.57052279 205.31518555 151.54541016 C206.04672852 151.89619629 206.77827148 152.24698242 207.53198242 152.60839844 C214.10015384 155.88235701 219.57917395 159.88983358 224.87768555 164.98291016 C225.66530273 165.71896484 226.45291992 166.45501953 227.2644043 167.21337891 C239.66314059 179.78051909 244.7057648 195.93615264 245.31518555 213.29541016 C244.81485168 230.08247398 238.88484714 244.90070318 232.70889282 260.2752533 C231.41499604 263.50459819 230.14249968 266.74207857 228.87768555 269.98291016 C228.48030182 270.99380203 228.48030182 270.99380203 228.07489014 272.02511597 C224.15455653 282.11264459 221.65637519 291.92193411 220.09008789 302.62451172 C219.51159997 306.56090851 218.87268646 310.48773087 218.24487305 314.41650391 C218.12537292 315.17381805 218.0058728 315.9311322 217.88275146 316.71139526 C214.44939327 338.42734092 209.19300335 355.23291021 190.69018555 368.98291016 C162.1588976 388.97984265 125.72570159 397.08730385 91.94018555 402.85791016 C90.69003662 403.07350586 89.4398877 403.28910156 88.15185547 403.51123047 C75.13425195 405.63231806 63.78204216 404.61652132 50.87768555 402.42041016 C50.08555664 402.28730438 49.29342773 402.15419861 48.47729492 402.01705933 C34.01068208 399.56588934 19.90291052 396.3307056 5.87768555 391.98291016 C4.55824951 391.57951416 4.55824951 391.57951416 3.2121582 391.16796875 C-20.17866982 383.88755683 -51.44254722 372.25144077 -63.95458984 349.50390625 C-69.37943296 337.79223367 -71.36139554 325.08007272 -73.18481445 312.42041016 C-75.23128823 298.40040861 -77.64619751 284.7563519 -82.80981445 271.48291016 C-83.05328613 270.84675781 -83.29675781 270.21060547 -83.54760742 269.55517578 C-85.11083477 265.49250776 -86.7369788 261.45608742 -88.3684082 257.42041016 C-97.02808663 235.90858434 -104.23815246 213.96021775 -96.12231445 190.98291016 C-95.85547852 190.13986328 -95.58864258 189.29681641 -95.3137207 188.42822266 C-89.15501419 170.85538006 -74.1597142 158.35111757 -57.9074707 150.41259766 C-47.35233233 145.75396155 -37.57635177 145.81499946 -26.18481445 145.85791016 C-25.48676697 145.85912872 -24.78871948 145.86034729 -24.06951904 145.86160278 C-14.28945229 145.88155527 -4.52108355 146.04569234 5.25268555 146.42041016 C6.8284436 146.47914307 6.8284436 146.47914307 8.43603516 146.5390625 C15.62091039 146.85452258 15.62091039 146.85452258 17.87768555 147.98291016 C16.29839833 127.13631885 3.48233075 113.59884881 -11.3840332 100.33056641 C-14.02271208 98.06830392 -16.71437854 95.89571645 -19.43481445 93.73291016 C-43.81421164 73.93558045 -43.81421164 73.93558045 -46.6730957 61.60791016 C-47.68257297 44.07184797 -37.01724213 22.55114106 -26.1496582 9.63916016 C-19.50063059 2.55391404 -10.06182876 -4.82199225 0 0 Z " fill="#4F546A" transform="translate(980.122314453125,880.01708984375)"/>
<path d="M0 0 C15.01310951 4.35515429 26.03422303 11.14777398 37 22 C37.64453125 22.58394531 38.2890625 23.16789062 38.953125 23.76953125 C62.95325312 45.9191822 73.03325413 82.42575549 80 113 C80.23557617 114.01852051 80.47115234 115.03704102 80.71386719 116.08642578 C86.81668175 142.93097457 89.45453856 170.55226797 91 198 C91.05784668 199.01416992 91.11569336 200.02833984 91.17529297 201.07324219 C95.8145216 286.89208867 92.87369392 385.02196854 65 467 C64.66919434 467.9909668 64.33838867 468.98193359 63.99755859 470.00292969 C47.96444843 517.6317963 23.50849178 562.86745935 -2 606 C-3.49862163 603.00275674 -2.59532906 600.72153795 -2.0625 597.4375 C5.5668 544.92586453 -16.60361886 489.74618151 -47.36328125 448.15673828 C-57.9568813 433.94894801 -57.9568813 433.94894801 -70.63330078 421.68188477 C-72.59139293 419.27222117 -72.38807548 417.52480663 -72.3984375 414.4453125 C-72.40464111 413.29264893 -72.41084473 412.13998535 -72.41723633 410.95239258 C-72.40329834 409.68935303 -72.38936035 408.42631348 -72.375 407.125 C-72.37067963 406.47018646 -72.36635925 405.81537292 -72.36190796 405.14071655 C-71.89754472 344.13877476 -58.02697516 286.09377749 -41.00260925 227.90986633 C-27.6748393 182.35164712 -15.41774513 137.89158618 -14.61239624 90.1267395 C-13.48429154 26.49956423 -13.48429154 26.49956423 0 0 Z " fill="#474C60" transform="translate(1366,129)"/>
<path d="M0 0 C14.14578803 21.83443988 12.72574648 54.332054 13.17578125 79.1640625 C13.52552889 97.91985958 14.02784316 116.43601563 17 135 C17.18127441 136.1358252 17.36254883 137.27165039 17.54931641 138.44189453 C22.58119671 168.81893074 31.34016648 198.38654155 40.18209839 227.834198 C56.23063403 281.2970433 67.70213808 333.96651221 70.87060547 389.81225586 C70.9943192 391.90395167 71.13491673 393.99376396 71.28125 396.08398438 C72.54081686 415.26285786 72.54081686 415.26285786 69.078125 421.4140625 C66.54515783 423.95489602 63.91338837 425.91608966 61 428 C59.44112462 429.71923187 57.94062438 431.49303522 56.5 433.3125 C55.76394531 434.23675781 55.02789063 435.16101563 54.26953125 436.11328125 C53.52058594 437.06589844 52.77164063 438.01851562 52 439 C51.22011719 439.96292969 50.44023438 440.92585938 49.63671875 441.91796875 C12.46636626 488.69214438 -3.23430474 543.94657135 1 603 C-1.57618112 600.67250144 -3.08717245 598.28673529 -4.71484375 595.23046875 C-5.22982422 594.27084229 -5.74480469 593.31121582 -6.27539062 592.32250977 C-6.82388672 591.28795654 -7.37238281 590.25340332 -7.9375 589.1875 C-9.11284513 586.99195398 -10.28863567 584.79664634 -11.46484375 582.6015625 C-12.05765137 581.49200195 -12.65045898 580.38244141 -13.26123047 579.23925781 C-15.32928291 575.38655916 -17.43106305 571.55324303 -19.53881836 567.72216797 C-22.04582017 563.15888012 -24.52673617 558.58164589 -27 554 C-27.51530273 553.04609375 -28.03060547 552.0921875 -28.56152344 551.109375 C-73.45248722 467.57074456 -88.33794571 378.30230098 -75.84765625 89.9609375 C-71.31607531 74.99775895 -65.43903445 60.74420989 -58 47 C-57.42507813 45.92234375 -56.85015625 44.8446875 -56.2578125 43.734375 C-45.05945228 23.60828982 -28.70788629 8.62914453 -7.62109375 -0.3203125 C-4.51973481 -1.12453971 -2.96548895 -1.25121959 0 0 Z " fill="#4F546A" transform="translate(741,131)"/>
<path d="M0 0 C12.37562896 3.87367248 20.23721704 15.08172287 26 26 C29.53238173 32.99720424 31.76673574 40.27349326 33.8125 47.8125 C34.03188232 48.61316895 34.25126465 49.41383789 34.47729492 50.23876953 C35.88771953 55.70395137 37.13984257 60.98446712 35.07421875 66.44921875 C26.78972713 79.82108832 14.91274642 90.5306606 2.6875 100.25 C-11.29128543 111.64531363 -25.48785666 124.95869319 -27.625 143.875 C-27.75654223 145.24938955 -27.88382356 146.62422639 -28 148 C-27.34966797 147.96970703 -26.69933594 147.93941406 -26.02929688 147.90820312 C-12.69775964 147.30601416 0.62908952 146.88119032 13.97412109 146.82275391 C15.35190957 146.81598899 16.72968607 146.80580902 18.10742188 146.79199219 C29.49096544 146.68648617 39.1332433 147.58761264 49.4375 152.5625 C50.16904297 152.91328613 50.90058594 153.26407227 51.65429688 153.62548828 C58.22246829 156.89944685 63.7014884 160.90692342 69 166 C69.78761719 166.73605469 70.57523438 167.47210937 71.38671875 168.23046875 C83.78545504 180.79760893 88.82807926 196.95324248 89.4375 214.3125 C89.22904114 222.34233534 87.82528877 229.81684624 85.66162109 237.52441406 C85.20483618 239.23356501 84.79650264 240.95614218 84.42822266 242.68652344 C82.81557258 250.19109161 81.0676081 258.03824474 74.57177734 262.76806641 C68.46277647 266.03221544 61.97720835 268.07404418 55.34716797 270.00878906 C52.16916366 270.94990485 49.06166001 272.00109082 45.94140625 273.1171875 C12.75008129 284.90717745 -22.1537407 292.72498321 -57.125 296.75 C-58.21449951 296.87777832 -59.30399902 297.00555664 -60.42651367 297.13720703 C-68.07684936 297.96556136 -75.21138926 298 -83 298 C-83 214.51 -83 131.02 -83 45 C-78.05 43.35 -73.1 41.7 -68 40 C-65.20281738 38.68455476 -62.68077888 37.44464829 -60.0625 35.875 C-59.40685059 35.49375977 -58.75120117 35.11251953 -58.07568359 34.71972656 C-47.13901023 28.24897012 -36.91640504 20.68232541 -26.625 13.25 C-25.86155273 12.70029541 -25.09810547 12.15059082 -24.31152344 11.58422852 C-21.14792212 9.30144186 -18.00907147 7.00701082 -14.921875 4.62109375 C-9.66263322 0.62826448 -6.64656458 -1.1792292 0 0 Z " fill="#474C60" transform="translate(1136,879)"/>
<path d="M0 0 C2.0757814 0.69192713 4.15143665 1.38423434 6.2265625 2.078125 C8.15680886 2.71972801 10.08928333 3.35465039 12.0234375 3.984375 C17.47597607 5.76984103 22.73825265 7.70396479 28 10 C35.86979952 13.16442988 43.92335751 15.44278075 52.09765625 17.65234375 C55.35037406 18.53484395 58.58296018 19.46463449 61.80859375 20.44140625 C118.33898776 37.45698218 175.52753266 40.40044805 232.92236328 26.73046875 C235.80665127 26.0458908 238.69594075 25.39251383 241.58984375 24.75 C265.55213457 19.35599656 289.21144628 11.79478629 311.79833984 2.1328125 C316.80725491 0 316.80725491 0 319 0 C317.51098512 5.31604437 315.82158359 10.50230178 313.86032104 15.66465759 C310.53736467 24.55688158 308.58446667 33.26616643 307.21240234 42.64160156 C306.63391443 46.57799835 305.99500092 50.50482071 305.3671875 54.43359375 C305.24768738 55.1909079 305.12818726 55.94822205 305.00506592 56.72848511 C301.57170772 78.44443076 296.31531781 95.25000005 277.8125 109 C249.28121206 128.99693249 212.84801605 137.1043937 179.0625 142.875 C177.81235107 143.0905957 176.56220215 143.30619141 175.27416992 143.52832031 C162.2565664 145.64940791 150.90435661 144.63361117 138 142.4375 C137.20787109 142.30439423 136.41574219 142.17128845 135.59960938 142.03414917 C121.13299653 139.58297919 107.02522497 136.34779544 93 132 C92.12037598 131.73106934 91.24075195 131.46213867 90.33447266 131.18505859 C66.94364463 123.90464667 35.67976723 112.26853061 23.16772461 89.52099609 C17.7428815 77.80932351 15.76091892 65.09716257 13.9375 52.4375 C11.82199876 37.94460443 9.25530189 23.93475903 3.8125 10.25 C3.29789405 8.92198464 2.78355974 7.59386398 2.26953125 6.265625 C1.64111328 4.64914062 1.64111328 4.64914062 1 3 C0.67 2.01 0.34 1.02 0 0 Z " fill="#858BAC" transform="translate(893,1140)"/>
<path d="M0 0 C-1.48901488 5.31604437 -3.17841641 10.50230178 -5.13967896 15.66465759 C-8.46263533 24.55688158 -10.41553333 33.26616643 -11.78759766 42.64160156 C-12.36608557 46.57799835 -13.00499908 50.50482071 -13.6328125 54.43359375 C-13.75231262 55.1909079 -13.87181274 55.94822205 -13.99493408 56.72848511 C-17.42829228 78.44443076 -22.68468219 95.25000005 -41.1875 109 C-72.2965528 130.8036294 -120.87775272 145 -159 145 C-159 109.36 -159 73.72 -159 37 C-148.11 36.01 -137.22 35.02 -126 34 C-112.4047447 32.24061402 -99.17779445 29.7115194 -85.82861328 26.6484375 C-83.11573764 26.02653195 -80.39995947 25.41894444 -77.68359375 24.8125 C-53.62732342 19.35522778 -29.88895093 11.83773311 -7.20166016 2.1328125 C-2.19274509 0 -2.19274509 0 0 0 Z " fill="#7A7F9E" transform="translate(1212,1140)"/>
<path d="M0 0 C0.76521973 0.2151123 1.53043945 0.43022461 2.31884766 0.65185547 C36.4670133 10.42458677 66.50544597 31.78089276 88 60 C84.54561966 61.15146011 84.06381931 60.88047959 80.8515625 59.5234375 C80.02148682 59.1845752 79.19141113 58.84571289 78.33618164 58.49658203 C77.4414917 58.12645996 76.54680176 57.75633789 75.625 57.375 C68.20119633 54.42711439 60.84167285 51.95073892 53.0625 50.125 C52.26086426 49.93470215 51.45922852 49.7444043 50.63330078 49.54833984 C43.48678688 47.94591106 36.25510808 46.97170713 29 46 C29.12117188 47.07032471 29.24234375 48.14064941 29.3671875 49.2434082 C36.47783778 112.72576593 36.47783778 112.72576593 27 138 C8.82248454 137.54863957 -5.35334658 127.16247832 -18 115 C-18.93457031 114.12859375 -19.86914062 113.2571875 -20.83203125 112.359375 C-29.26166577 104.35484605 -36.1796058 95.38687404 -43 86 C-43.51594727 85.29149902 -44.03189453 84.58299805 -44.56347656 83.85302734 C-51.07520735 74.86683886 -57.22246115 65.67679905 -63.2109375 56.3359375 C-71.25170081 43.80331921 -79.47141128 31.46547396 -88.74609375 19.8046875 C-90 18 -90 18 -90 16 C-62.40058153 -0.23732211 -31.87135875 -9.29165004 0 0 Z " fill="#000000" transform="translate(1328,858)"/>
<path d="M0 0 C1 1 1 1 1.1328125 3.2578125 C1.13023437 4.20398438 1.12765625 5.15015625 1.125 6.125 C1.12757813 7.05570313 1.13015625 7.98640625 1.1328125 8.9453125 C0.79352235 16.748986 -0.79147671 20.83188847 -5.4375 26.9375 C-6.54265785 28.44267926 -7.6441519 29.95055467 -8.7421875 31.4609375 C-9.56928223 32.59740723 -9.56928223 32.59740723 -10.41308594 33.75683594 C-12.77974418 37.10219839 -14.92893016 40.56553965 -17.0625 44.0625 C-22.09384697 52.2445789 -27.44007179 60.16829221 -33 68 C-33.55236328 68.77843262 -34.10472656 69.55686523 -34.67382812 70.35888672 C-41.23036547 79.54719618 -47.87490452 88.40149621 -55.6953125 96.5546875 C-58.03339884 98.96857925 -58.03339884 98.96857925 -60.08984375 101.6171875 C-68.77260698 112.44844633 -82.07172272 120.47510295 -95 125 C-95.6909375 125.24492188 -96.381875 125.48984375 -97.09375 125.7421875 C-100.81217959 126.93273732 -104.12510472 127.05936469 -108 127 C-108.63531382 125.23284069 -109.25754959 123.46097982 -109.875 121.6875 C-110.22304688 120.70136719 -110.57109375 119.71523438 -110.9296875 118.69921875 C-113.7295209 109.02242228 -114.38505255 99.67252167 -114.375 89.625 C-114.3764502 88.9544458 -114.37790039 88.2838916 -114.37939453 87.59301758 C-114.37525797 69.94436366 -112.22246279 52.48416205 -110 35 C-129.23145227 38.3055055 -147.5760664 41.68069226 -165.33984375 49.9609375 C-166.21769531 50.30382812 -167.09554687 50.64671875 -168 51 C-168.66 50.67 -169.32 50.34 -170 50 C-169.43152344 49.3709375 -168.86304688 48.741875 -168.27734375 48.09375 C-167.50519531 47.2378125 -166.73304688 46.381875 -165.9375 45.5 C-165.10734375 44.58089844 -164.2771875 43.66179688 -163.421875 42.71484375 C-161.46947725 40.52626886 -159.57329746 38.30771925 -157.6875 36.0625 C-119.07057464 -7.93258163 -53.34004686 -29.99191247 0 0 Z " fill="#010101" transform="translate(859,869)"/>
<path d="M0 0 C9.1212181 8.83114403 15.97133539 19.30962094 22.76171875 29.953125 C44.22271025 63.63343302 44.22271025 63.63343302 70 94 C70.80566406 94.87914062 71.61132812 95.75828125 72.44140625 96.6640625 C84.77704112 109.79226699 100.11130419 118.29448619 118 121 C118.46652903 118.99033647 118.92403643 116.97842678 119.35546875 114.9609375 C119.80488707 112.89633698 120.2894897 110.83921691 120.80078125 108.7890625 C125.53694189 87.73447158 122.99694464 65.93406859 120.65625 44.7109375 C120.08986351 39.42908848 119.86182146 34.30835894 120 29 C130.77978583 29.34167308 140.60362498 31.29392176 151 34 C150.55732691 40.80318649 149.96134099 47.55349885 149.0625 54.3125 C148.16832947 61.13128773 147.51433843 67.95987818 146.9375 74.8125 C146.81870483 76.19659058 146.81870483 76.19659058 146.69750977 77.60864258 C146.44190734 80.73782783 146.21559307 83.86779466 146 87 C145.90952393 88.30348389 145.81904785 89.60696777 145.72583008 90.94995117 C144.820134 105.1818311 144.80279626 119.41891664 144.81152344 133.67502594 C144.81251013 135.70838169 144.8115134 137.74172993 144.81030273 139.77508545 C144.80612359 158.61440524 145.25010607 177.2959526 146.8125 196.07519531 C147.11011342 200.7176546 147.08366857 205.35058408 147 210 C140.47913023 205.96387171 134.15430477 201.75935586 127.99609375 197.1875 C126.35784668 195.99138741 124.7030668 194.8134046 122.9855957 193.73413086 C114.79179706 188.42543654 108.20179419 181.58655421 101.38549805 174.66674805 C99.3135854 172.56360177 97.23112601 170.47138221 95.14648438 168.38085938 C93.80145798 167.0266625 92.45703618 165.6718648 91.11328125 164.31640625 C90.50269363 163.70156876 89.89210602 163.08673126 89.26301575 162.45326233 C85.53536846 158.66469085 81.98339405 154.7623368 78.51615906 150.73387146 C76.60758212 148.55123299 74.58050282 146.51839826 72.5 144.5 C69.1811321 141.21459968 66.01846564 137.86936347 62.984375 134.3203125 C61.4704727 132.55011966 59.93523297 130.79815218 58.390625 129.0546875 C26.68090144 93.06768886 0 49.39300881 0 0 Z " fill="#BEBFC1" transform="translate(1237,875)"/>
<path d="M0 0 C1.8169443 3.6338886 -0.13783406 7.81524327 -1.0625 11.625 C-1.29291992 12.57487793 -1.52333984 13.52475586 -1.76074219 14.50341797 C-3.88049724 22.96109835 -6.54759629 30.99791698 -10 39 C-10.31420898 39.72864258 -10.62841797 40.45728516 -10.95214844 41.20800781 C-23.97784801 70.90357654 -43.37471901 97.52009799 -64.4453125 122.01171875 C-66.88679229 124.86757814 -69.26306639 127.76573092 -71.625 130.6875 C-75.24834495 135.13903808 -79.01963872 139.42382455 -82.8828125 143.66796875 C-84.78051169 145.75823889 -86.64733415 147.86986115 -88.5 150 C-91.89374015 153.89651647 -95.35430003 157.73064945 -98.81640625 161.56640625 C-100.70848685 163.67511146 -102.57905758 165.79919801 -104.4375 167.9375 C-107.19784541 171.11221597 -110.02792558 174.21537436 -112.875 177.3125 C-117.00722971 181.83857308 -120.90213248 186.50849811 -124.75390625 191.2734375 C-128.35199743 195.64120732 -132.05507468 199.9406014 -136 204 C-136.33 204 -136.66 204 -137 204 C-136.87706524 201.39572416 -136.75141302 198.79160811 -136.625 196.1875 C-136.56227905 194.85174927 -136.56227905 194.85174927 -136.49829102 193.48901367 C-136.22856364 187.94738401 -135.89429913 182.41619276 -135.48828125 176.8828125 C-132.26814001 131.03154743 -133.08989279 85.18500949 -138.67871094 39.57861328 C-138.76569244 38.8600415 -138.85267395 38.14146973 -138.94229126 37.40112305 C-139.17960982 35.44944908 -139.42190435 33.49838201 -139.66455078 31.54736328 C-139.99921421 28.00830967 -140.05872371 24.55249954 -140 21 C-136.14830593 20.15495567 -132.29330126 19.32608365 -128.4375 18.5 C-127.35146484 18.26152344 -126.26542969 18.02304687 -125.14648438 17.77734375 C-119.65874671 16.60973999 -114.61344746 15.67785093 -109 16 C-109.74634303 31.16254787 -109.74634303 31.16254787 -110.51171875 37.45703125 C-113.14640202 59.14645397 -114.22317629 81.8811889 -108 103 C-107.64641913 104.66248893 -107.30376539 106.32769157 -107 108 C-91.5621694 104.77208996 -79.03158448 99.58275493 -67 89 C-66.29230469 88.4121875 -65.58460938 87.824375 -64.85546875 87.21875 C-60.06456067 83.18815811 -55.9748492 78.8282501 -52 74 C-51.5879834 73.50564453 -51.1759668 73.01128906 -50.75146484 72.50195312 C-38.56107656 57.8298722 -27.87227274 42.10675868 -17.6015625 26.05078125 C-14.98566292 21.96331494 -12.31614777 17.91323808 -9.625 13.875 C-9.2321582 13.28356201 -8.83931641 12.69212402 -8.43457031 12.08276367 C-5.70475617 7.99444227 -2.87266934 3.9892546 0 0 Z " fill="#D0D1D3" transform="translate(858,888)"/>
<path d="M0 0 C17.41623659 6.39212939 33.6897705 24.81474005 42 41 C44.5496873 47.53150416 45.16055978 53.70156695 42.8125 60.375 C39.69836705 64.88512358 36.15975051 67.30413794 31 69 C12.89720621 70.96096398 -4.01979826 64.58256698 -18.64453125 54.10546875 C-23.51463364 50.07776245 -25.64088276 47.11234939 -26.375 40.75 C-25.05149014 27.51490136 -14.69092269 16.28921085 -6 7 C-3.9761566 4.68585119 -1.98815271 2.34500063 0 0 Z " fill="#000001" transform="translate(976,898)"/>
<path d="M0 0 C11.04135006 8.92704898 24.95903558 22.91676818 27.44140625 37.61328125 C27.66576245 42.61425334 27.50732674 46.18605859 24.3125 50.1875 C11.67603494 62.54596283 -6.60801563 69.25046711 -24.03808594 69.32128906 C-31.11795067 69.20096063 -34.12144212 67.49980027 -39.375 62.9375 C-42.68976428 58.98528105 -42.52256425 54.39007534 -42.45703125 49.4453125 C-40.19288671 32.37714597 -23.76929094 17.24776982 -11 7 C-7.475239 4.43558746 -3.78752738 2.15562681 0 0 Z " fill="#000000" transform="translate(1128,898)"/>
<path d="M0 0 C7 4 7 4 8 6 C6.69144447 7.83615081 5.37805538 9.66885789 4.0625 11.5 C3.33160156 12.5209375 2.60070312 13.541875 1.84765625 14.59375 C1.23792969 15.3878125 0.62820313 16.181875 0 17 C-0.33 17 -0.66 17 -1 17 C-0.67 11.39 -0.34 5.78 0 0 Z " fill="#878CAC" transform="translate(860,870)"/>
<path d="M0 0 C0.66 0.33 1.32 0.66 2 1 C-7.41002278 11.55808656 -7.41002278 11.55808656 -12 16 C-12 13.36 -12 10.72 -12 8 C-11.42765625 7.73445313 -10.8553125 7.46890625 -10.265625 7.1953125 C-7.8923988 5.94323109 -5.87786714 4.5063648 -3.75 2.875 C-2.69039062 2.06675781 -2.69039062 2.06675781 -1.609375 1.2421875 C-1.07828125 0.83226562 -0.5471875 0.42234375 0 0 Z " fill="#8A8FAC" transform="translate(733,1076)"/>
</svg>
